<mxfile host="app.diagrams.net" modified="2022-11-17T13:35:21.469Z" agent="5.0 (Macintosh; Intel Mac OS X 10_15_7) AppleWebKit/537.36 (KHTML, like Gecko) Chrome/107.0.0.0 Safari/537.36" etag="rBib2dDmMnc4rwgetIS5" version="20.5.1" type="github">
  <diagram id="ZHo2Z9xourO2a4vG3ijq" name="Page-1">
    <mxGraphModel dx="3085" dy="1985" grid="1" gridSize="10" guides="1" tooltips="1" connect="1" arrows="1" fold="1" page="1" pageScale="1" pageWidth="827" pageHeight="1169" math="0" shadow="0">
      <root>
        <mxCell id="0" />
        <mxCell id="1" parent="0" />
        <mxCell id="qsHixoDsXuJKPjAoGbDo-4" style="edgeStyle=orthogonalEdgeStyle;rounded=0;orthogonalLoop=1;jettySize=auto;html=1;exitX=1;exitY=0.25;exitDx=0;exitDy=0;entryX=-0.001;entryY=0.659;entryDx=0;entryDy=0;fontSize=8;entryPerimeter=0;" edge="1" parent="1" target="qsHixoDsXuJKPjAoGbDo-8">
          <mxGeometry relative="1" as="geometry">
            <mxPoint x="450" y="108.99999999999994" as="sourcePoint" />
            <mxPoint x="481" y="109" as="targetPoint" />
          </mxGeometry>
        </mxCell>
        <mxCell id="qsHixoDsXuJKPjAoGbDo-1" value="&lt;pre style=&quot;background-color: rgb(33, 33, 33); color: rgb(238, 255, 255); font-family: Menlo, monospace; font-size: 8px;&quot;&gt;&lt;span style=&quot;color: rgb(137, 221, 255); font-size: 8px;&quot;&gt;&amp;lt;&lt;/span&gt;&lt;span style=&quot;color: rgb(240, 113, 120); font-size: 8px;&quot;&gt;div&lt;br style=&quot;font-size: 8px;&quot;&gt;&lt;/span&gt;&lt;span style=&quot;color: rgb(240, 113, 120); font-size: 8px;&quot;&gt;  &lt;/span&gt;&lt;span style=&quot;color: rgb(255, 203, 107); font-style: italic; font-size: 8px;&quot;&gt;class&lt;/span&gt;&lt;span style=&quot;color: rgb(195, 232, 141); font-size: 8px;&quot;&gt;=&quot;page-bar -no-neg-margin -clickable&quot;&lt;br style=&quot;font-size: 8px;&quot;&gt;&lt;/span&gt;&lt;span style=&quot;color: rgb(195, 232, 141); font-size: 8px;&quot;&gt;  &lt;/span&gt;&lt;span style=&quot;color: rgb(255, 203, 107); font-style: italic; font-size: 8px;&quot;&gt;ng-if&lt;/span&gt;&lt;span style=&quot;color: rgb(195, 232, 141); font-size: 8px;&quot;&gt;=&quot;&lt;br style=&quot;font-size: 8px;&quot;&gt;&lt;/span&gt;&lt;span style=&quot;color: rgb(195, 232, 141); font-size: 8px;&quot;&gt;    &lt;/span&gt;&lt;span style=&quot;color: rgb(128, 128, 128); font-size: 8px;&quot;&gt;vm.currentChampionship.accessPermissions.canAccessStructureSettings &amp;amp;&amp;amp;&lt;br style=&quot;font-size: 8px;&quot;&gt;&lt;/span&gt;&lt;span style=&quot;color: rgb(128, 128, 128); font-size: 8px;&quot;&gt;    vm.currentChampionship.championshipPermissions.isAbleToEditCompetitionsSchedule &amp;amp;&amp;amp;&lt;br style=&quot;font-size: 8px;&quot;&gt;&lt;/span&gt;&lt;span style=&quot;color: rgb(128, 128, 128); font-size: 8px;&quot;&gt;    vm.CHAMPIONSHIPS.STATUS[vm.currentChampionship.championship.status].adjustmentCTA&lt;br style=&quot;font-size: 8px;&quot;&gt;&lt;/span&gt;&lt;span style=&quot;color: rgb(128, 128, 128); font-size: 8px;&quot;&gt;  &lt;/span&gt;&lt;span style=&quot;color: rgb(195, 232, 141); font-size: 8px;&quot;&gt;&quot;&lt;br style=&quot;font-size: 8px;&quot;&gt;&lt;/span&gt;&lt;span style=&quot;color: rgb(195, 232, 141); font-size: 8px;&quot;&gt;  &lt;/span&gt;&lt;span style=&quot;color: rgb(255, 203, 107); font-style: italic; font-size: 8px;&quot;&gt;ng-click&lt;/span&gt;&lt;span style=&quot;color: rgb(195, 232, 141); font-size: 8px;&quot;&gt;=&quot;&lt;/span&gt;&lt;span style=&quot;color: rgb(128, 128, 128); font-size: 8px;&quot;&gt;vm.goToStructureSettings($event)&lt;/span&gt;&lt;span style=&quot;color: rgb(195, 232, 141); font-size: 8px;&quot;&gt;&quot;&lt;br style=&quot;font-size: 8px;&quot;&gt;&lt;/span&gt;&lt;span style=&quot;color: rgb(137, 221, 255); font-size: 8px;&quot;&gt;&amp;gt;&lt;br style=&quot;font-size: 8px;&quot;&gt;&lt;/span&gt;&lt;span style=&quot;color: rgb(137, 221, 255); font-size: 8px;&quot;&gt;  &amp;lt;&lt;/span&gt;&lt;span style=&quot;color: rgb(240, 113, 120); font-size: 8px;&quot;&gt;h1&lt;br style=&quot;font-size: 8px;&quot;&gt;&lt;/span&gt;&lt;span style=&quot;color: rgb(240, 113, 120); font-size: 8px;&quot;&gt;    &lt;/span&gt;&lt;span style=&quot;color: rgb(255, 203, 107); font-style: italic; font-size: 8px;&quot;&gt;class&lt;/span&gt;&lt;span style=&quot;color: rgb(195, 232, 141); font-size: 8px;&quot;&gt;=&quot;page-bar__title&quot;&lt;br style=&quot;font-size: 8px;&quot;&gt;&lt;/span&gt;&lt;span style=&quot;color: rgb(195, 232, 141); font-size: 8px;&quot;&gt;    &lt;/span&gt;&lt;span style=&quot;color: rgb(255, 203, 107); font-style: italic; font-size: 8px;&quot;&gt;translate-once&lt;/span&gt;&lt;span style=&quot;color: rgb(195, 232, 141); font-size: 8px;&quot;&gt;=&quot;UPDATE-CHAMPIONSHIP-TO-START&quot;&lt;br style=&quot;font-size: 8px;&quot;&gt;&lt;/span&gt;&lt;span style=&quot;color: rgb(195, 232, 141); font-size: 8px;&quot;&gt;  &lt;/span&gt;&lt;span style=&quot;color: rgb(137, 221, 255); font-size: 8px;&quot;&gt;&amp;gt;&amp;lt;/&lt;/span&gt;&lt;span style=&quot;color: rgb(240, 113, 120); font-size: 8px;&quot;&gt;h1&lt;/span&gt;&lt;span style=&quot;color: rgb(137, 221, 255); font-size: 8px;&quot;&gt;&amp;gt;&lt;br style=&quot;font-size: 8px;&quot;&gt;&lt;/span&gt;&lt;span style=&quot;color: rgb(137, 221, 255); font-size: 8px;&quot;&gt;  &amp;lt;&lt;/span&gt;&lt;span style=&quot;color: rgb(240, 113, 120); font-size: 8px;&quot;&gt;p&lt;br style=&quot;font-size: 8px;&quot;&gt;&lt;/span&gt;&lt;span style=&quot;color: rgb(240, 113, 120); font-size: 8px;&quot;&gt;    &lt;/span&gt;&lt;span style=&quot;color: rgb(255, 203, 107); font-style: italic; font-size: 8px;&quot;&gt;class&lt;/span&gt;&lt;span style=&quot;color: rgb(195, 232, 141); font-size: 8px;&quot;&gt;=&quot;page-bar__text&quot;&lt;br style=&quot;font-size: 8px;&quot;&gt;&lt;/span&gt;&lt;span style=&quot;color: rgb(195, 232, 141); font-size: 8px;&quot;&gt;    &lt;/span&gt;&lt;span style=&quot;color: rgb(255, 203, 107); font-style: italic; font-size: 8px;&quot;&gt;translate-once&lt;/span&gt;&lt;span style=&quot;color: rgb(195, 232, 141); font-size: 8px;&quot;&gt;=&quot;REVIEW-ROUND-CONFIGURATION-WITH-LINK&quot;&lt;br style=&quot;font-size: 8px;&quot;&gt;&lt;/span&gt;&lt;span style=&quot;color: rgb(195, 232, 141); font-size: 8px;&quot;&gt;    &lt;/span&gt;&lt;span style=&quot;color: rgb(255, 203, 107); font-style: italic; font-size: 8px;&quot;&gt;translate-values&lt;/span&gt;&lt;span style=&quot;color: rgb(195, 232, 141); font-size: 8px;&quot;&gt;=&quot;:: {&lt;br style=&quot;font-size: 8px;&quot;&gt;&lt;/span&gt;&lt;span style=&quot;color: rgb(195, 232, 141); font-size: 8px;&quot;&gt;      link: vm.settingsLink&lt;br style=&quot;font-size: 8px;&quot;&gt;&lt;/span&gt;&lt;span style=&quot;color: rgb(195, 232, 141); font-size: 8px;&quot;&gt;    }&quot;&lt;br style=&quot;font-size: 8px;&quot;&gt;&lt;/span&gt;&lt;span style=&quot;color: rgb(195, 232, 141); font-size: 8px;&quot;&gt;  &lt;/span&gt;&lt;span style=&quot;color: rgb(137, 221, 255); font-size: 8px;&quot;&gt;&amp;gt;&amp;lt;/&lt;/span&gt;&lt;span style=&quot;color: rgb(240, 113, 120); font-size: 8px;&quot;&gt;p&lt;/span&gt;&lt;span style=&quot;color: rgb(137, 221, 255); font-size: 8px;&quot;&gt;&amp;gt;&lt;br style=&quot;font-size: 8px;&quot;&gt;&lt;/span&gt;&lt;span style=&quot;color: rgb(137, 221, 255); font-size: 8px;&quot;&gt;&amp;lt;/&lt;/span&gt;&lt;span style=&quot;color: rgb(240, 113, 120); font-size: 8px;&quot;&gt;div&lt;/span&gt;&lt;span style=&quot;color: rgb(137, 221, 255); font-size: 8px;&quot;&gt;&amp;gt;&lt;/span&gt;&lt;/pre&gt;" style="text;whiteSpace=wrap;html=1;fontSize=8;" vertex="1" parent="1">
          <mxGeometry x="40" y="60" width="410" height="220" as="geometry" />
        </mxCell>
        <mxCell id="qsHixoDsXuJKPjAoGbDo-2" value="Angular version" style="rounded=1;whiteSpace=wrap;html=1;fontSize=8;fillColor=#fff2cc;strokeColor=#d6b656;" vertex="1" parent="1">
          <mxGeometry x="41" y="44" width="120" height="30" as="geometry" />
        </mxCell>
        <mxCell id="qsHixoDsXuJKPjAoGbDo-6" style="edgeStyle=orthogonalEdgeStyle;rounded=0;orthogonalLoop=1;jettySize=auto;html=1;exitX=1;exitY=0.5;exitDx=0;exitDy=0;entryX=0;entryY=0.5;entryDx=0;entryDy=0;fontSize=8;" edge="1" parent="1" target="qsHixoDsXuJKPjAoGbDo-7">
          <mxGeometry relative="1" as="geometry">
            <mxPoint x="811" y="109" as="sourcePoint" />
            <mxPoint x="859.9999999999998" y="109.5" as="targetPoint" />
          </mxGeometry>
        </mxCell>
        <mxCell id="qsHixoDsXuJKPjAoGbDo-12" style="edgeStyle=orthogonalEdgeStyle;rounded=0;orthogonalLoop=1;jettySize=auto;html=1;exitX=1;exitY=0.5;exitDx=0;exitDy=0;entryX=-0.001;entryY=0.874;entryDx=0;entryDy=0;entryPerimeter=0;fontSize=8;" edge="1" parent="1" source="qsHixoDsXuJKPjAoGbDo-7" target="qsHixoDsXuJKPjAoGbDo-11">
          <mxGeometry relative="1" as="geometry" />
        </mxCell>
        <mxCell id="qsHixoDsXuJKPjAoGbDo-7" value="&lt;pre style=&quot;background-color:#212121;color:#eeffff;font-family:&#39;Menlo&#39;,monospace;font-size:9.0pt;&quot;&gt;svc&lt;span style=&quot;color:#89ddff;&quot;&gt;.&lt;/span&gt;accessPermissions&lt;span style=&quot;color:#89ddff;&quot;&gt;.&lt;/span&gt;canAccessStructureSettings &lt;span style=&quot;color:#89ddff;&quot;&gt;= &lt;/span&gt;&lt;span style=&quot;color:#82aaff;&quot;&gt;includes&lt;/span&gt;&lt;span style=&quot;color:#89ddff;&quot;&gt;(&lt;br&gt;&lt;/span&gt;&lt;span style=&quot;color:#89ddff;&quot;&gt;  &lt;/span&gt;&lt;span style=&quot;font-style:italic;&quot;&gt;pick&lt;/span&gt;&lt;span style=&quot;color:#89ddff;&quot;&gt;(&lt;/span&gt;svc&lt;span style=&quot;color:#89ddff;&quot;&gt;.&lt;/span&gt;championshipPermissions&lt;span style=&quot;color:#89ddff;&quot;&gt;, &lt;/span&gt;structureSettingsRequirements&lt;span style=&quot;color:#89ddff;&quot;&gt;),&lt;br&gt;&lt;/span&gt;&lt;span style=&quot;color:#89ddff;&quot;&gt;  &lt;/span&gt;&lt;span style=&quot;color:#c792ea;font-style:italic;&quot;&gt;true&lt;br&gt;&lt;/span&gt;&lt;span style=&quot;color:#89ddff;&quot;&gt;);&lt;/span&gt;&lt;/pre&gt;" style="text;whiteSpace=wrap;html=1;fontSize=8;" vertex="1" parent="1">
          <mxGeometry x="850" y="68.5" width="480" height="80" as="geometry" />
        </mxCell>
        <mxCell id="qsHixoDsXuJKPjAoGbDo-8" value="&lt;meta charset=&quot;utf-8&quot;&gt;&lt;pre style=&quot;font-size: 8px; font-style: normal; font-variant-ligatures: normal; font-variant-caps: normal; font-weight: 400; letter-spacing: normal; orphans: 2; text-indent: 0px; text-transform: none; widows: 2; word-spacing: 0px; -webkit-text-stroke-width: 0px; text-decoration-thickness: initial; text-decoration-style: initial; text-decoration-color: initial; text-align: left; background-color: rgb(33, 33, 33); color: rgb(238, 255, 255); font-family: Menlo, monospace;&quot;&gt;&lt;span style=&quot;color: rgb(128, 128, 128);&quot;&gt;vm.currentChampionship.accessPermissions.canAccessStructureSettings&lt;/span&gt;&lt;/pre&gt;" style="text;whiteSpace=wrap;html=1;fontSize=8;" vertex="1" parent="1">
          <mxGeometry x="490" y="89" width="360" height="31" as="geometry" />
        </mxCell>
        <mxCell id="qsHixoDsXuJKPjAoGbDo-10" value="&lt;pre style=&quot;background-color:#212121;color:#eeffff;font-family:&#39;Menlo&#39;,monospace;font-size:9.0pt;&quot;&gt;&lt;span style=&quot;color:#c792ea;font-style:italic;&quot;&gt;const &lt;/span&gt;structureSettingsRequirements &lt;span style=&quot;color:#89ddff;&quot;&gt;=&lt;br&gt;&lt;/span&gt;&lt;span style=&quot;color:#89ddff;&quot;&gt;  &lt;/span&gt;CHAMPIONSHIPS&lt;span style=&quot;color:#89ddff;&quot;&gt;.&lt;/span&gt;ACCESS_PERMISSIONS&lt;span style=&quot;color:#89ddff;&quot;&gt;.&lt;/span&gt;STRUCTURE_SETTINGS_REQUIREMENTS&lt;span style=&quot;color:#89ddff;&quot;&gt;;&lt;/span&gt;&lt;/pre&gt;" style="text;whiteSpace=wrap;html=1;fontSize=8;" vertex="1" parent="1">
          <mxGeometry x="1626" y="79" width="520" height="50" as="geometry" />
        </mxCell>
        <mxCell id="qsHixoDsXuJKPjAoGbDo-13" style="edgeStyle=orthogonalEdgeStyle;rounded=0;orthogonalLoop=1;jettySize=auto;html=1;exitX=1;exitY=0.75;exitDx=0;exitDy=0;entryX=0;entryY=0.5;entryDx=0;entryDy=0;fontSize=8;" edge="1" parent="1" source="qsHixoDsXuJKPjAoGbDo-11" target="qsHixoDsXuJKPjAoGbDo-10">
          <mxGeometry relative="1" as="geometry" />
        </mxCell>
        <mxCell id="qsHixoDsXuJKPjAoGbDo-11" value="&lt;meta charset=&quot;utf-8&quot;&gt;&lt;pre style=&quot;font-style: normal; font-variant-ligatures: normal; font-variant-caps: normal; font-weight: 400; letter-spacing: normal; orphans: 2; text-align: left; text-indent: 0px; text-transform: none; widows: 2; word-spacing: 0px; -webkit-text-stroke-width: 0px; text-decoration-thickness: initial; text-decoration-style: initial; text-decoration-color: initial; background-color: rgb(33, 33, 33); color: rgb(238, 255, 255); font-family: Menlo, monospace; font-size: 9pt;&quot;&gt;structureSettingsRequirements&lt;/pre&gt;" style="text;whiteSpace=wrap;html=1;fontSize=8;" vertex="1" parent="1">
          <mxGeometry x="1374" y="80" width="210" height="32" as="geometry" />
        </mxCell>
      </root>
    </mxGraphModel>
  </diagram>
</mxfile>
